<?xml version="1.0" encoding="utf-8"?>
<!-- Generator: Adobe Illustrator 24.0.0, SVG Export Plug-In . SVG Version: 6.00 Build 0)  -->
<svg width="100px" height="100px" version="1.1" id="Layer_1" xmlns="http://www.w3.org/2000/svg" xmlns:xlink="http://www.w3.org/1999/xlink" x="0px" y="0px"
	 viewBox="0 0 100 100" style="enable-background:new 0 0 100 100;" xml:space="preserve">
<style type="text/css">
	.st0{fill:#FFFFFF;}
</style>
<path class="st0" d="M31.3,50.2c0.7-0.7,1.4-1.3,2-1.9C46.8,34.8,60.2,21.3,73.7,7.8c1-1,1.1-2.4,0.2-3.3c-0.8-0.8-2.1-0.9-3-0.1
	c-0.1,0.1-0.3,0.2-0.4,0.4C55.9,19.3,41.4,33.9,26.9,48.4c-1.1,1.1-1.1,2.4,0,3.4c14.5,14.6,29.1,29.1,43.6,43.7
	c0.7,0.7,1.5,1,2.4,0.7c1.5-0.4,2.1-2.3,1-3.5c-0.2-0.2-0.3-0.4-0.5-0.5C59.6,78.3,45.7,64.4,31.9,50.6
	C31.8,50.4,31.6,50.3,31.3,50.2z"/>
</svg>
